<svg width="358" height="262" viewBox="0 0 358 262" fill="none" xmlns="http://www.w3.org/2000/svg">
<path d="M3.65625 11.8438H4.35352V10.8594C5.83594 10.748 6.99609 9.93945 6.99609 8.50391C6.99609 7.25586 6.1582 6.62305 4.61719 6.26562L4.35352 6.20117V3.75195C5.0918 3.85156 5.61328 4.2793 5.68945 5.01172H6.90234C6.85547 3.6875 5.80664 2.80859 4.35352 2.69141V1.69531H3.65625V2.69141C2.19141 2.80273 1.14258 3.66406 1.14258 4.97656C1.14258 6.16602 1.94531 6.83398 3.43359 7.17969L3.65625 7.23828V9.79297C2.72461 9.69336 2.28516 9.18945 2.17969 8.50391H0.960938C1.00781 9.9043 2.17383 10.7422 3.65625 10.8594V11.8438ZM2.38477 4.87695C2.38477 4.34375 2.81836 3.85742 3.65625 3.75195V6.03711C2.73047 5.80273 2.38477 5.41016 2.38477 4.87695ZM5.75977 8.62109C5.75977 9.24805 5.33789 9.7168 4.35352 9.79883V7.39648C5.42578 7.6543 5.75977 8.01172 5.75977 8.62109ZM13.0059 11.1992C14.7988 11.1992 16.0703 9.97461 16.0703 8.25781C16.0703 6.62891 14.8984 5.43945 13.293 5.43945C12.291 5.43945 11.4766 5.9082 11.0723 6.72266H10.9727C10.9961 4.57812 11.7695 3.44727 13.0879 3.44727C13.8848 3.44727 14.4648 3.85742 14.6289 4.57227H15.9473C15.7363 3.23047 14.6465 2.33984 13.0586 2.33984C11.002 2.33984 9.71289 4.01562 9.71289 6.88672C9.71289 9.76367 11.1016 11.1992 13.0059 11.1992ZM12.9941 10.1035C11.9863 10.1035 11.2188 9.30664 11.2188 8.26367C11.2188 7.23242 11.9629 6.48828 13.0059 6.48828C14.0488 6.48828 14.7695 7.23242 14.7695 8.29297C14.7695 9.31836 14.002 10.1035 12.9941 10.1035ZM21.7227 11.2051C23.6914 11.2051 24.8398 9.58203 24.8398 6.78125C24.8398 3.97461 23.6738 2.33984 21.7227 2.33984C19.7598 2.33984 18.5938 3.97461 18.5938 6.76367C18.5938 9.57617 19.748 11.2051 21.7227 11.2051ZM21.7227 10.1152C20.5742 10.1152 19.918 8.94336 19.918 6.76367C19.918 4.61328 20.5859 3.43555 21.7227 3.43555C22.8594 3.43555 23.5156 4.60156 23.5156 6.76367C23.5156 8.94922 22.8711 10.1152 21.7227 10.1152ZM28.9453 7.32031H28.8457V2.14062H27.5859V11H28.8457V8.68555L29.4023 8.15234L31.5938 11H33.1406L30.3398 7.36133L32.9648 4.63672H31.4766L28.9453 7.32031Z" fill="#26282B"/>
<path d="M3.65625 55.8438H4.35352V54.8594C5.83594 54.748 6.99609 53.9395 6.99609 52.5039C6.99609 51.2559 6.1582 50.623 4.61719 50.2656L4.35352 50.2012V47.752C5.0918 47.8516 5.61328 48.2793 5.68945 49.0117H6.90234C6.85547 47.6875 5.80664 46.8086 4.35352 46.6914V45.6953H3.65625V46.6914C2.19141 46.8027 1.14258 47.6641 1.14258 48.9766C1.14258 50.166 1.94531 50.834 3.43359 51.1797L3.65625 51.2383V53.793C2.72461 53.6934 2.28516 53.1895 2.17969 52.5039H0.960938C1.00781 53.9043 2.17383 54.7422 3.65625 54.8594V55.8438ZM2.38477 48.877C2.38477 48.3438 2.81836 47.8574 3.65625 47.752V50.0371C2.73047 49.8027 2.38477 49.4102 2.38477 48.877ZM5.75977 52.6211C5.75977 53.248 5.33789 53.7168 4.35352 53.7988V51.3965C5.42578 51.6543 5.75977 52.0117 5.75977 52.6211ZM12.8359 55.2051C14.6289 55.2051 15.8418 54.0039 15.8418 52.2461C15.8418 50.5586 14.6699 49.457 13.2402 49.457C12.3848 49.457 11.7578 49.7324 11.3711 50.2539H11.2715L11.5176 47.6582H15.4023V46.5449H10.498L10.0234 51.4258H11.2246C11.5352 50.8398 12.127 50.4883 12.877 50.4883C13.873 50.4883 14.5586 51.2031 14.5586 52.2695C14.5586 53.3711 13.8672 54.1094 12.8418 54.1094C11.9219 54.1094 11.2363 53.5527 11.1426 52.709H9.88867C9.9707 54.1797 11.1543 55.2051 12.8359 55.2051ZM21.4883 55.2051C23.457 55.2051 24.6055 53.582 24.6055 50.7812C24.6055 47.9746 23.4395 46.3398 21.4883 46.3398C19.5254 46.3398 18.3594 47.9746 18.3594 50.7637C18.3594 53.5762 19.5137 55.2051 21.4883 55.2051ZM21.4883 54.1152C20.3398 54.1152 19.6836 52.9434 19.6836 50.7637C19.6836 48.6133 20.3516 47.4355 21.4883 47.4355C22.625 47.4355 23.2812 48.6016 23.2812 50.7637C23.2812 52.9492 22.6367 54.1152 21.4883 54.1152ZM28.7109 51.3203H28.6113V46.1406H27.3516V55H28.6113V52.6855L29.168 52.1523L31.3594 55H32.9062L30.1055 51.3613L32.7305 48.6367H31.2422L28.7109 51.3203Z" fill="#26282B"/>
<path d="M3.65625 99.8438H4.35352V98.8594C5.83594 98.748 6.99609 97.9395 6.99609 96.5039C6.99609 95.2559 6.1582 94.623 4.61719 94.2656L4.35352 94.2012V91.752C5.0918 91.8516 5.61328 92.2793 5.68945 93.0117H6.90234C6.85547 91.6875 5.80664 90.8086 4.35352 90.6914V89.6953H3.65625V90.6914C2.19141 90.8027 1.14258 91.6641 1.14258 92.9766C1.14258 94.166 1.94531 94.834 3.43359 95.1797L3.65625 95.2383V97.793C2.72461 97.6934 2.28516 97.1895 2.17969 96.5039H0.960938C1.00781 97.9043 2.17383 98.7422 3.65625 98.8594V99.8438ZM2.38477 92.877C2.38477 92.3438 2.81836 91.8574 3.65625 91.752V94.0371C2.73047 93.8027 2.38477 93.4102 2.38477 92.877ZM5.75977 96.6211C5.75977 97.248 5.33789 97.7168 4.35352 97.7988V95.3965C5.42578 95.6543 5.75977 96.0117 5.75977 96.6211ZM13.7734 99H15.0391V97.3184H16.2051V96.2051H15.0391V90.5449H13.1699C12.0039 92.2969 10.7617 94.2949 9.64844 96.2051V97.3184H13.7734V99ZM10.9082 96.1465C11.7754 94.6641 12.8066 93.0176 13.7148 91.6523H13.791V96.2285H10.9082V96.1465ZM21.793 99.2051C23.7617 99.2051 24.9102 97.582 24.9102 94.7812C24.9102 91.9746 23.7441 90.3398 21.793 90.3398C19.8301 90.3398 18.6641 91.9746 18.6641 94.7637C18.6641 97.5762 19.8184 99.2051 21.793 99.2051ZM21.793 98.1152C20.6445 98.1152 19.9883 96.9434 19.9883 94.7637C19.9883 92.6133 20.6562 91.4355 21.793 91.4355C22.9297 91.4355 23.5859 92.6016 23.5859 94.7637C23.5859 96.9492 22.9414 98.1152 21.793 98.1152ZM29.0156 95.3203H28.916V90.1406H27.6562V99H28.916V96.6855L29.4727 96.1523L31.6641 99H33.2109L30.4102 95.3613L33.0352 92.6367H31.5469L29.0156 95.3203Z" fill="#26282B"/>
<path d="M3.65625 143.844H4.35352V142.859C5.83594 142.748 6.99609 141.939 6.99609 140.504C6.99609 139.256 6.1582 138.623 4.61719 138.266L4.35352 138.201V135.752C5.0918 135.852 5.61328 136.279 5.68945 137.012H6.90234C6.85547 135.688 5.80664 134.809 4.35352 134.691V133.695H3.65625V134.691C2.19141 134.803 1.14258 135.664 1.14258 136.977C1.14258 138.166 1.94531 138.834 3.43359 139.18L3.65625 139.238V141.793C2.72461 141.693 2.28516 141.189 2.17969 140.504H0.960938C1.00781 141.904 2.17383 142.742 3.65625 142.859V143.844ZM2.38477 136.877C2.38477 136.344 2.81836 135.857 3.65625 135.752V138.037C2.73047 137.803 2.38477 137.41 2.38477 136.877ZM5.75977 140.621C5.75977 141.248 5.33789 141.717 4.35352 141.799V139.396C5.42578 139.654 5.75977 140.012 5.75977 140.621ZM11.752 139.174H12.8066C13.9082 139.174 14.5879 139.736 14.5879 140.639C14.5879 141.518 13.8613 142.104 12.8242 142.104C11.7988 142.104 11.0898 141.57 11.0137 140.738H9.75391C9.82422 142.227 11.0547 143.205 12.8418 143.205C14.6055 143.205 15.9355 142.15 15.9355 140.709C15.9355 139.549 15.209 138.799 14.084 138.629V138.529C14.9688 138.283 15.6074 137.609 15.6133 136.59C15.6191 135.389 14.6289 134.34 12.8828 134.34C11.1016 134.34 10 135.365 9.91211 136.801H11.1543C11.2305 135.916 11.8457 135.418 12.8066 135.418C13.7559 135.418 14.3184 136.01 14.3184 136.754C14.3184 137.568 13.6855 138.143 12.7715 138.143H11.752V139.174ZM21.5586 143.205C23.5273 143.205 24.6758 141.582 24.6758 138.781C24.6758 135.975 23.5098 134.34 21.5586 134.34C19.5957 134.34 18.4297 135.975 18.4297 138.764C18.4297 141.576 19.584 143.205 21.5586 143.205ZM21.5586 142.115C20.4102 142.115 19.7539 140.943 19.7539 138.764C19.7539 136.613 20.4219 135.436 21.5586 135.436C22.6953 135.436 23.3516 136.602 23.3516 138.764C23.3516 140.949 22.707 142.115 21.5586 142.115ZM28.7812 139.32H28.6816V134.141H27.4219V143H28.6816V140.686L29.2383 140.152L31.4297 143H32.9766L30.1758 139.361L32.8008 136.637H31.3125L28.7812 139.32Z" fill="#26282B"/>
<path d="M3.65625 187.844H4.35352V186.859C5.83594 186.748 6.99609 185.939 6.99609 184.504C6.99609 183.256 6.1582 182.623 4.61719 182.266L4.35352 182.201V179.752C5.0918 179.852 5.61328 180.279 5.68945 181.012H6.90234C6.85547 179.688 5.80664 178.809 4.35352 178.691V177.695H3.65625V178.691C2.19141 178.803 1.14258 179.664 1.14258 180.977C1.14258 182.166 1.94531 182.834 3.43359 183.18L3.65625 183.238V185.793C2.72461 185.693 2.28516 185.189 2.17969 184.504H0.960938C1.00781 185.904 2.17383 186.742 3.65625 186.859V187.844ZM2.38477 180.877C2.38477 180.344 2.81836 179.857 3.65625 179.752V182.037C2.73047 181.803 2.38477 181.41 2.38477 180.877ZM5.75977 184.621C5.75977 185.248 5.33789 185.717 4.35352 185.799V183.396C5.42578 183.654 5.75977 184.012 5.75977 184.621ZM9.8125 180.994H11.0547C11.0547 180.057 11.6816 179.424 12.6367 179.424C13.5742 179.424 14.1309 180.051 14.1309 180.871C14.1309 181.557 13.8496 181.979 12.7773 183.098L9.88281 186.109V187H15.5781V185.881H11.6758V185.781L13.5391 183.906C15.0215 182.418 15.4492 181.721 15.4492 180.742C15.4492 179.354 14.3066 178.34 12.7188 178.34C11.0137 178.34 9.8125 179.441 9.8125 180.994ZM21.2891 187.205C23.2578 187.205 24.4062 185.582 24.4062 182.781C24.4062 179.975 23.2402 178.34 21.2891 178.34C19.3262 178.34 18.1602 179.975 18.1602 182.764C18.1602 185.576 19.3145 187.205 21.2891 187.205ZM21.2891 186.115C20.1406 186.115 19.4844 184.943 19.4844 182.764C19.4844 180.613 20.1523 179.436 21.2891 179.436C22.4258 179.436 23.082 180.602 23.082 182.764C23.082 184.949 22.4375 186.115 21.2891 186.115ZM28.5117 183.32H28.4121V178.141H27.1523V187H28.4121V184.686L28.9688 184.152L31.1602 187H32.707L29.9062 183.361L32.5312 180.637H31.043L28.5117 183.32Z" fill="#26282B"/>
<path d="M3.65625 231.844H4.35352V230.859C5.83594 230.748 6.99609 229.939 6.99609 228.504C6.99609 227.256 6.1582 226.623 4.61719 226.266L4.35352 226.201V223.752C5.0918 223.852 5.61328 224.279 5.68945 225.012H6.90234C6.85547 223.688 5.80664 222.809 4.35352 222.691V221.695H3.65625V222.691C2.19141 222.803 1.14258 223.664 1.14258 224.977C1.14258 226.166 1.94531 226.834 3.43359 227.18L3.65625 227.238V229.793C2.72461 229.693 2.28516 229.189 2.17969 228.504H0.960938C1.00781 229.904 2.17383 230.742 3.65625 230.859V231.844ZM2.38477 224.877C2.38477 224.344 2.81836 223.857 3.65625 223.752V226.037C2.73047 225.803 2.38477 225.41 2.38477 224.877ZM5.75977 228.621C5.75977 229.248 5.33789 229.717 4.35352 229.799V227.396C5.42578 227.654 5.75977 228.012 5.75977 228.621ZM11.9102 231H13.2227V222.545H11.916L9.68945 224.127V225.416L11.8105 223.898H11.9102V231ZM19.6719 231.205C21.6406 231.205 22.7891 229.582 22.7891 226.781C22.7891 223.975 21.623 222.34 19.6719 222.34C17.709 222.34 16.543 223.975 16.543 226.764C16.543 229.576 17.6973 231.205 19.6719 231.205ZM19.6719 230.115C18.5234 230.115 17.8672 228.943 17.8672 226.764C17.8672 224.613 18.5352 223.436 19.6719 223.436C20.8086 223.436 21.4648 224.602 21.4648 226.764C21.4648 228.949 20.8203 230.115 19.6719 230.115ZM26.8945 227.32H26.7949V222.141H25.5352V231H26.7949V228.686L27.3516 228.152L29.543 231H31.0898L28.2891 227.361L30.9141 224.637H29.4258L26.8945 227.32Z" fill="#26282B"/>
<g clip-path="url(#clip0_2001_613)">
<path d="M58.6152 259V250.545H57.0801L54.3848 257.16H54.2852L51.5957 250.545H50.0605V259H51.2793V252.807H51.3613L53.8398 258.848H54.8359L57.3145 252.807H57.3965V259H58.6152ZM64.2852 259.123C66.1484 259.123 67.291 257.875 67.291 255.818C67.291 253.762 66.1426 252.514 64.2852 252.514C62.4219 252.514 61.2734 253.768 61.2734 255.818C61.2734 257.875 62.416 259.123 64.2852 259.123ZM64.2852 258.051C63.1895 258.051 62.5742 257.236 62.5742 255.818C62.5742 254.4 63.1895 253.58 64.2852 253.58C65.375 253.58 65.9961 254.4 65.9961 255.818C65.9961 257.23 65.375 258.051 64.2852 258.051ZM69.8086 259H71.0684V255.268C71.0684 254.242 71.6602 253.609 72.5918 253.609C73.5234 253.609 73.9688 254.125 73.9688 255.18V259H75.2285V254.881C75.2285 253.363 74.4434 252.514 73.0195 252.514C72.0586 252.514 71.4258 252.941 71.1152 253.645H71.0215V252.637H69.8086V259Z" fill="#85888F"/>
<path d="M104.953 259V251.676H107.607V250.545H100.98V251.676H103.641V259H104.953ZM114.666 252.637H113.406V256.369C113.406 257.395 112.85 258.016 111.83 258.016C110.904 258.016 110.488 257.512 110.488 256.457V252.637H109.229V256.768C109.229 258.262 110.014 259.123 111.426 259.123C112.393 259.123 113.043 258.713 113.354 257.992H113.453V259H114.666V252.637ZM121.678 257.295C121.443 257.811 120.922 258.092 120.16 258.092C119.152 258.092 118.502 257.365 118.461 256.211V256.152H122.967V255.719C122.967 253.727 121.895 252.514 120.119 252.514C118.32 252.514 117.178 253.809 117.178 255.83C117.178 257.863 118.297 259.123 120.125 259.123C121.584 259.123 122.615 258.42 122.891 257.295H121.678ZM120.113 253.539C121.045 253.539 121.654 254.213 121.684 255.244H118.461C118.531 254.219 119.182 253.539 120.113 253.539Z" fill="#85888F"/>
<path d="M153.01 252.678H153.092L154.908 259H156.145L158.43 250.545H157.064L155.518 257.119H155.436L153.66 250.545H152.441L150.678 257.119H150.596L149.043 250.545H147.678L149.957 259H151.199L153.01 252.678ZM164.422 257.295C164.188 257.811 163.666 258.092 162.904 258.092C161.896 258.092 161.246 257.365 161.205 256.211V256.152H165.711V255.719C165.711 253.727 164.639 252.514 162.863 252.514C161.064 252.514 159.922 253.809 159.922 255.83C159.922 257.863 161.041 259.123 162.869 259.123C164.328 259.123 165.359 258.42 165.635 257.295H164.422ZM162.857 253.539C163.789 253.539 164.398 254.213 164.428 255.244H161.205C161.275 254.219 161.926 253.539 162.857 253.539ZM170.555 259.105C171.434 259.105 172.178 258.689 172.559 257.992H172.658V259H173.865V250.141H172.605V253.645H172.512C172.166 252.947 171.428 252.525 170.555 252.525C168.943 252.525 167.906 253.809 167.906 255.812C167.906 257.828 168.932 259.105 170.555 259.105ZM170.912 253.604C171.967 253.604 172.629 254.459 172.629 255.818C172.629 257.189 171.973 258.027 170.912 258.027C169.846 258.027 169.207 257.201 169.207 255.818C169.207 254.441 169.852 253.604 170.912 253.604Z" fill="#85888F"/>
<path d="M204.891 259V251.676H207.545V250.545H200.918V251.676H203.578V259H204.891ZM210.068 259H211.328V255.273C211.328 254.277 211.902 253.615 212.934 253.615C213.824 253.615 214.299 254.137 214.299 255.186V259H215.559V254.887C215.559 253.381 214.721 252.52 213.361 252.52C212.4 252.52 211.727 252.941 211.416 253.65H211.316V250.141H210.068V259ZM223.713 252.637H222.453V256.369C222.453 257.395 221.896 258.016 220.877 258.016C219.951 258.016 219.535 257.512 219.535 256.457V252.637H218.275V256.768C218.275 258.262 219.061 259.123 220.473 259.123C221.439 259.123 222.09 258.713 222.4 257.992H222.5V259H223.713V252.637Z" fill="#85888F"/>
<path d="M250.414 259V255.461H254.047V254.354H250.414V251.676H254.381V250.545H249.102V259H250.414ZM256.939 259H258.199V255.197C258.199 254.301 258.873 253.686 259.828 253.686C260.051 253.686 260.426 253.727 260.531 253.756V252.572C260.396 252.543 260.156 252.525 259.969 252.525C259.137 252.525 258.428 252.977 258.246 253.604H258.152V252.637H256.939V259ZM263.395 251.5C263.834 251.5 264.191 251.143 264.191 250.709C264.191 250.27 263.834 249.912 263.395 249.912C262.955 249.912 262.598 250.27 262.598 250.709C262.598 251.143 262.955 251.5 263.395 251.5ZM262.768 259H264.021V252.637H262.768V259Z" fill="#85888F"/>
<path d="M288.094 256.744C288.188 258.244 289.447 259.205 291.322 259.205C293.326 259.205 294.58 258.197 294.58 256.598C294.58 255.332 293.865 254.635 292.131 254.219L291.199 253.99C290.098 253.721 289.652 253.369 289.652 252.754C289.652 251.963 290.344 251.453 291.381 251.453C292.365 251.453 293.045 251.945 293.168 252.748H294.445C294.369 251.336 293.115 250.34 291.398 250.34C289.553 250.34 288.322 251.336 288.322 252.824C288.322 254.055 289.02 254.781 290.549 255.15L291.639 255.414C292.758 255.684 293.25 256.094 293.25 256.756C293.25 257.529 292.477 258.086 291.422 258.086C290.291 258.086 289.506 257.564 289.395 256.744H288.094ZM298.891 259.105C299.729 259.105 300.426 258.742 300.807 258.098H300.906V259H302.119V254.646C302.119 253.311 301.217 252.514 299.617 252.514C298.17 252.514 297.139 253.211 297.01 254.283H298.229C298.369 253.82 298.855 253.557 299.559 253.557C300.42 253.557 300.865 253.949 300.865 254.646V255.203L299.137 255.309C297.619 255.402 296.764 256.064 296.764 257.207C296.764 258.367 297.66 259.105 298.891 259.105ZM299.213 258.092C298.527 258.092 298.029 257.746 298.029 257.154C298.029 256.574 298.428 256.264 299.307 256.205L300.865 256.1V256.65C300.865 257.471 300.162 258.092 299.213 258.092ZM305.357 251.031V252.654H304.344V253.662H305.357V257.324C305.357 258.549 305.914 259.041 307.314 259.041C307.561 259.041 307.795 259.012 308 258.977V257.975C307.824 257.992 307.713 258.004 307.52 258.004C306.893 258.004 306.617 257.705 306.617 257.02V253.662H308V252.654H306.617V251.031H305.357Z" fill="#85888F"/>
<path d="M334.443 256.744C334.537 258.244 335.797 259.205 337.672 259.205C339.676 259.205 340.93 258.197 340.93 256.598C340.93 255.332 340.215 254.635 338.48 254.219L337.549 253.99C336.447 253.721 336.002 253.369 336.002 252.754C336.002 251.963 336.693 251.453 337.73 251.453C338.715 251.453 339.395 251.945 339.518 252.748H340.795C340.719 251.336 339.465 250.34 337.748 250.34C335.902 250.34 334.672 251.336 334.672 252.824C334.672 254.055 335.369 254.781 336.898 255.15L337.988 255.414C339.107 255.684 339.6 256.094 339.6 256.756C339.6 257.529 338.826 258.086 337.771 258.086C336.641 258.086 335.855 257.564 335.744 256.744H334.443ZM348.891 252.637H347.631V256.369C347.631 257.395 347.074 258.016 346.055 258.016C345.129 258.016 344.713 257.512 344.713 256.457V252.637H343.453V256.768C343.453 258.262 344.238 259.123 345.65 259.123C346.617 259.123 347.268 258.713 347.578 257.992H347.678V259H348.891V252.637ZM351.719 259H352.979V255.268C352.979 254.242 353.57 253.609 354.502 253.609C355.434 253.609 355.879 254.125 355.879 255.18V259H357.139V254.881C357.139 253.363 356.354 252.514 354.93 252.514C353.969 252.514 353.336 252.941 353.025 253.645H352.932V252.637H351.719V259Z" fill="#85888F"/>
</g>
<path d="M63.5 0V234" stroke="#E7EAF0" stroke-dasharray="5"/>
<path d="M113.5 0V234" stroke="#E7EAF0" stroke-dasharray="5"/>
<path d="M163.5 0V234" stroke="#E7EAF0" stroke-dasharray="5"/>
<path d="M213.5 0V234" stroke="#E7EAF0" stroke-dasharray="5"/>
<path d="M256.5 0V234" stroke="#E7EAF0" stroke-dasharray="5"/>
<path d="M299.5 0V234" stroke="#E7EAF0" stroke-dasharray="5"/>
<path d="M342.5 0V234" stroke="#E7EAF0" stroke-dasharray="5"/>
<path d="M49 183C49 180.239 51.2386 178 54 178C56.7614 178 59 180.239 59 183V234H49V183Z" fill="#F2F2F2"/>
<path d="M72 134C72 131.239 74.2386 129 77 129C79.7614 129 82 131.239 82 134V234H72V134Z" fill="#F2F2F2"/>
<path d="M95 123C95 120.239 97.2386 118 100 118C102.761 118 105 120.239 105 123V234H95V123Z" fill="#F2F2F2"/>
<path d="M118 150C118 147.239 120.239 145 123 145C125.761 145 128 147.239 128 150V234H118V150Z" fill="#F2F2F2"/>
<path d="M141 201C141 198.239 143.239 196 146 196C148.761 196 151 198.239 151 201V234H141V201Z" fill="#F2F2F2"/>
<path d="M164 177C164 174.239 166.239 172 169 172C171.761 172 174 174.239 174 177V234H164V177Z" fill="#F2F2F2"/>
<path d="M187 217C187 214.239 189.239 212 192 212C194.761 212 197 214.239 197 217V234H187V217Z" fill="#F2F2F2"/>
<path d="M210 228C210 225.239 212.239 223 215 223C217.761 223 220 225.239 220 228V234H210V228Z" fill="#F2F2F2"/>
<path d="M233 228C233 225.239 235.239 223 238 223C240.761 223 243 225.239 243 228V234H233V228Z" fill="#F2F2F2"/>
<path d="M256 173C256 170.239 258.239 168 261 168C263.761 168 266 170.239 266 173V234H256V173Z" fill="#F2F2F2"/>
<path d="M279 166C279 163.239 281.239 161 284 161C286.761 161 289 163.239 289 166V234H279V166Z" fill="#F2F2F2"/>
<path d="M302 123C302 120.239 304.239 118 307 118C309.761 118 312 120.239 312 123V234H302V123Z" fill="#F2F2F2"/>
<path d="M325 134C325 131.239 327.239 129 330 129C332.761 129 335 131.239 335 134V234H325V134Z" fill="#F2F2F2"/>
<path d="M348 150C348 147.239 350.239 145 353 145C355.761 145 358 147.239 358 150V234H348V150Z" fill="#F2F2F2"/>
<rect x="49" y="72.8" width="10" height="96.1636" rx="5" fill="#22C46A"/>
<path d="M53.9999 47V175.573" stroke="#22C46A" stroke-linecap="round"/>
<rect x="95" y="38.3529" width="10" height="68.2353" rx="5" fill="#22C46A"/>
<path d="M99.9999 36V115.788" stroke="#22C46A" stroke-linecap="round"/>
<rect x="164" y="132.808" width="10" height="23.4615" rx="5" fill="#22C46A"/>
<path d="M169 107V167.271" stroke="#22C46A" stroke-linecap="round"/>
<rect x="210" y="188.114" width="10" height="16.4223" rx="5" fill="#22C46A"/>
<path d="M215 167V216.34" stroke="#22C46A" stroke-linecap="round"/>
<rect x="233" y="148.352" width="10" height="63.5048" rx="5" fill="#22C46A"/>
<path d="M238 146V221.992" stroke="#22C46A" stroke-linecap="round"/>
<rect x="256" y="132.002" width="10" height="16.6268" rx="5" fill="#22C46A"/>
<path d="M261 113V165.705" stroke="#22C46A" stroke-linecap="round"/>
<rect x="279" y="94.4" width="10" height="39.8286" rx="5" fill="#22C46A"/>
<path d="M284 78V159.452" stroke="#22C46A" stroke-linecap="round"/>
<rect x="302" y="68.1541" width="10" height="30.5558" rx="5" fill="#22C46A"/>
<path d="M307 47V111.423" stroke="#22C46A" stroke-linecap="round"/>
<rect x="72" y="66.4341" width="10" height="39.9742" rx="5" fill="#D73131"/>
<path d="M76.9999 10V114.811" stroke="#D73131" stroke-linecap="round"/>
<rect x="118" y="38.4574" width="10" height="72.8826" rx="5" fill="#D73131"/>
<path d="M123 22V135" stroke="#D73131" stroke-linecap="round"/>
<rect x="141" y="106.062" width="10" height="72.655" rx="5" fill="#D73131"/>
<path d="M146 92L146.5 188.5" stroke="#D73131" stroke-linecap="round"/>
<rect x="187" y="113" width="10" height="87.4456" rx="5" fill="#D73131"/>
<path d="M192 113L192.5 206.5" stroke="#D73131" stroke-linecap="round"/>
<rect x="325" y="69.0649" width="10" height="25.9048" rx="5" fill="#D73131"/>
<path d="M330 62V112.344" stroke="#D73131" stroke-linecap="round"/>
<rect x="348" y="90.6031" width="10" height="4.64127" rx="2.32063" fill="#D73131"/>
<path d="M353 79V112.912" stroke="#D73131" stroke-linecap="round"/>
<defs>
<clipPath id="clip0_2001_613">
<rect width="309" height="14" fill="white" transform="translate(49 248)"/>
</clipPath>
</defs>
</svg>
